<svg xmlns="http://www.w3.org/2000/svg" width="900" height="900">
	<path style="fill:#000000; stroke:none;" d="M449 36.9738C446.137 37.3532 443.426 39.5657 441 40.9892C435.683 44.1096 430.359 47.2325 425 50.2809C405.255 61.5131 385.547 72.8309 366 84.3966C303.089 121.62 239.044 156.962 176 193.989C155.768 205.872 135.379 217.517 115 229.15L99.0008 238.421C96.804 239.69 93.7424 240.957 92.6034 243.39C90.1465 248.636 92 258.268 92 264L92 312L92 484L92 611L92 644C92 647.745 90.7934 654.128 93.0278 657.366C95.619 661.121 102.16 663.328 106 665.603C117.255 672.273 128.626 678.811 140 685.281C178.443 707.15 216.951 729.056 255 751.603C302.357 779.667 350.707 806.035 398 834.201C410.565 841.684 423.319 848.87 436 856.15C439.999 858.445 446.149 863.839 451 863.076C458.625 861.878 467.271 854.01 474 850.306C494.219 839.175 514.138 827.356 534 815.603C596.229 778.783 659.195 743.003 722 707.15C742.719 695.323 763.103 682.809 784 671.306C789.386 668.341 794.664 665.203 800 662.15C802.447 660.751 806.129 659.318 807.397 656.61C809.853 651.364 808 641.732 808 636L808 588L808 416L808 289L808 256C808 252.255 809.207 245.872 806.972 242.634C804.217 238.642 797.088 236.234 793 233.799C781.433 226.912 769.682 220.276 758 213.579C717.263 190.224 676.778 166.429 636 143.15C590.553 117.206 545.021 91.2827 500 64.6034C488.087 57.5437 476.008 50.7433 464 43.8503C460.012 41.561 453.834 36.3332 449 36.9738z"/>
	<path style="fill:#ffffff; stroke:none;" d="M449 58.8627C445.773 59.3273 442.736 61.7786 440 63.3966C434.702 66.5292 429.282 69.4332 424 72.6003C406.848 82.8856 389.349 92.6327 372 102.579C311.231 137.418 250.154 171.921 190 207.799C170.509 219.425 150.508 230.188 131 241.799C125.49 245.079 113.261 249.041 110.603 255.21C108.333 260.48 110 269.324 110 275L110 322L110 484L110 601L110 632C110 635.935 108.853 642.141 111.028 645.621C113.801 650.058 121.581 652.763 126 655.281C137.031 661.566 147.878 668.183 159 674.306C196.392 694.889 233.079 716.997 270 738.424C314.282 764.125 358.499 789.966 403 815.281C414.367 821.747 425.66 828.34 437 834.85C440.919 837.1 446.194 841.829 451 841.137C454.227 840.673 457.264 838.221 460 836.603C464.96 833.671 470.03 830.93 475 828.011C491.943 818.06 508.954 808.2 526 798.427C587.415 763.218 649.201 728.464 710 692.201C729.491 680.575 749.498 669.814 769 658.201C774.428 654.968 786.796 650.826 789.397 644.79C791.667 639.52 790 630.677 790 625L790 578L790 416L790 299L790 268C790 264.065 791.147 257.859 788.972 254.379C786.199 249.942 778.419 247.237 774 244.719C762.968 238.433 752.09 231.874 741 225.691C703.709 204.9 666.937 183.013 630 161.576C585.719 135.876 541.478 110.076 497 84.7191C485.637 78.2412 474.405 71.5416 463 65.1389C459.044 62.9179 453.829 58.1675 449 58.8627z"/>
	<path style="fill:#000000; stroke:none;" d="M449 153C436.011 186.479 418.254 218.36 403.309 251C364.446 335.875 325.091 420.589 285.219 505C271.883 533.233 259.344 561.889 245.742 590C240.285 601.277 235.196 612.727 229.742 624C225.98 631.773 221.395 639.687 219 648C223.234 649.737 232.065 655.86 236.61 654.292C239.32 653.356 240.593 649.316 241.753 647C245.038 640.445 247.877 633.695 250.861 627C262.181 601.599 273.705 575.783 286.309 551C298.457 527.113 309.125 502.355 320.309 478C343.643 427.182 367.973 376.821 391.309 326C403.121 300.275 414.929 274.481 427.258 249C434.671 233.681 444.288 217.356 449 201L451 201C453.826 210.81 459.634 219.662 463.664 229C474.294 253.636 486.488 277.6 497.691 302C535.121 383.516 573.889 464.424 611.178 546C622.344 570.427 634.102 594.594 645.309 619C650.838 631.041 658.33 643.259 662 656C668.553 654.112 674.684 650.591 681 648C677.024 634.193 668.907 620.97 662.781 608C650.705 582.435 638.293 556.855 626.862 531C585.26 436.905 539.625 344.516 496.691 251C481.717 218.384 463.985 186.468 451 153L449 153M446 230C443.975 237.03 439.805 243.263 437 250L463 250C460.195 243.263 456.025 237.03 454 230L446 230M252 401L184 401L184 421L275 421L301 421C304.53 421 309.477 421.86 312.775 420.397C317.72 418.204 321.581 405.927 323 401L272 401C275.091 388.452 277.649 376.102 282.45 364C292.59 338.441 309.316 314.43 330 296.286C340.426 287.141 351.645 278.637 364 272.258C368.623 269.872 373.223 267.288 378 265.228C381.326 263.794 385.683 262.87 388.351 260.301C390.585 258.15 391.487 254.737 392.781 252C395.284 246.704 398.373 241.647 400 236C341.662 249.497 290.267 294.389 266.719 349C259.798 365.052 252.76 383.34 252 401M500 236C502.391 243.022 506.134 254.3 511.418 259.582C514.177 262.339 518.521 263.323 522 264.862C527.422 267.259 532.759 270.013 538 272.781C550.834 279.557 562.166 288.734 573 298.286C603.969 325.588 619.392 362.001 629 401L577 401C578.961 406.053 582.049 418.008 587.275 420.397C590.281 421.771 594.776 421 598 421L623 421L710 421L710 401L649 401C648.216 382.78 640.715 363.437 633.306 347C608.844 292.739 558.342 249.375 500 236M358 421L542 421C540.494 415.494 537.074 403.036 530.895 401.318C527.276 400.312 522.729 401 519 401L496 401L419 401L385 401C380.078 401 373.87 399.993 369.105 401.318C363.275 402.939 359.518 415.732 358 421M184 436L184 455L251 455C252.698 476.519 261.189 495.866 268 516L270 516C272.946 508.914 278.955 500.651 279.747 493C280.235 488.284 277.598 483.428 276.294 479C273.986 471.164 272.351 463.178 272 455L289 455C291.692 454.999 295.224 455.509 297.606 453.972C302.09 451.082 304.987 440.834 307 436L184 436M342 455L558 455C556.624 450.222 553.497 439.989 549.351 437.028C546.734 435.158 542.029 436 539 436L512 436L389 436L362 436C358.747 436 353.454 435.025 350.649 437.028C346.503 439.989 343.376 450.222 342 455M593 436C595.013 440.834 597.91 451.082 602.394 453.972C604.776 455.509 608.308 454.999 611 455L629 455C628.642 463.307 626.79 472.048 624.411 480C623.115 484.329 620.138 489.393 620.575 494C621.315 501.799 627.983 510.745 631 518C633.869 514.206 635.269 509.334 637.23 505C644.113 489.791 648.687 471.633 650 455L710 455L710 436L593 436M303 537C300.88 542.168 294.158 551.459 294.994 557C295.785 562.243 303.431 568.39 307.004 572C319.882 585.012 334.876 596.924 351 605.691C411.279 638.467 482.799 640.578 544 608.778C561.572 599.647 577.823 587.838 592 573.985C596.048 570.03 603.956 563.779 605.184 558C606.35 552.518 599.656 542.666 597 538C587.295 545.144 579.926 556.599 571 564.911C556.656 578.267 539.759 588.56 522 596.691C463.643 623.412 392.641 613.151 342 574.87C328.352 564.553 314.132 551.602 305 537L303 537z"/>
</svg>
